<svg width="453" height="397" viewBox="0 0 453 397" fill="none" xmlns="http://www.w3.org/2000/svg">
<path d="M254.667 12.25H207V22.05L214.843 27.9708C215.363 28.3383 215.667 28.9508 215.667 29.5633V46.9583C215.667 48.1017 214.713 49 213.5 49H196.167C194.953 49 194 48.1017 194 46.9583V29.5633C194 28.9508 194.303 28.3383 194.823 27.9708L202.667 22.05V12.25H185.333V53.0833C185.333 62.1075 193.09 69.4167 202.667 69.4167H228.667C238.243 69.4167 246 62.1075 246 53.0833V40.8333H254.667C259.477 40.8333 263.333 37.1583 263.333 32.6667V20.4167C263.333 15.8842 259.477 12.25 254.667 12.25ZM254.667 32.6667H246V20.4167H254.667V32.6667Z" fill="white"/>
<path d="M254.667 77.5833H185.333V85.75H254.667V77.5833Z" fill="white"/>
<path d="M373.308 224.683L348.2 199L373.308 173.317L365.667 165.5L332.917 199L365.667 232.5L373.308 224.683ZM401.692 224.683L426.8 199L401.692 173.317L409.333 165.5L442.083 199L409.333 232.5L401.692 224.683V224.683Z" fill="white"/>
<path d="M219.566 338.303C215.567 338.303 212.328 341.325 212.328 345.056C212.328 348.786 215.567 351.808 219.566 351.808C223.565 351.808 226.805 348.786 226.805 345.056C226.805 341.325 223.565 338.303 219.566 338.303Z" fill="white"/>
<path d="M219.566 312C200.584 312 185.145 325.883 184.234 343.356L174.515 355.444C173.25 357.003 174.465 359.222 176.54 359.222H184.133V373.389C184.133 378.583 188.689 382.833 194.257 382.833H199.319V397H234.752V374.9C246.698 369.611 255 358.231 255 345.056C255 326.781 239.156 312 219.566 312ZM234.752 345.056C234.752 345.669 234.702 346.283 234.651 346.897L238.852 350.014C239.257 350.297 239.359 350.769 239.106 351.194L235.056 357.758C234.803 358.183 234.246 358.325 233.841 358.183L228.83 356.294C227.767 357.05 226.653 357.664 225.438 358.136L224.628 363.142C224.578 363.614 224.122 363.944 223.616 363.944H215.517C215.011 363.944 214.606 363.614 214.505 363.142L213.745 358.136C212.48 357.664 211.366 357.05 210.303 356.294L205.292 358.183C204.836 358.325 204.279 358.183 204.026 357.758L199.977 351.194C199.724 350.817 199.825 350.297 200.23 350.014L204.482 346.897C204.431 346.283 204.381 345.669 204.381 345.056C204.381 344.442 204.482 343.781 204.583 343.214L200.28 340.097C199.875 339.814 199.774 339.342 200.027 338.869L204.077 332.353C204.33 331.928 204.836 331.786 205.292 331.928L210.354 333.817C211.366 333.108 212.53 332.447 213.745 331.975L214.505 326.969C214.606 326.497 215.011 326.167 215.517 326.167H223.616C224.122 326.167 224.527 326.497 224.628 326.969L225.388 331.975C226.603 332.447 227.716 333.061 228.779 333.817L233.841 331.928C234.297 331.786 234.853 331.928 235.056 332.353L239.106 338.869C239.359 339.294 239.257 339.814 238.852 340.097L234.55 343.214C234.702 343.781 234.752 344.394 234.752 345.056Z" fill="white"/>
<path d="M278.667 242.176C286.733 242.176 293.26 235.506 293.26 227.353L293.333 145.824C293.333 137.671 286.733 131 278.667 131H161.333C153.267 131 146.667 137.671 146.667 145.824V227.353C146.667 235.506 153.267 242.176 161.333 242.176H132C132 250.329 138.6 257 146.667 257H293.333C301.4 257 308 250.329 308 242.176H278.667ZM161.333 145.824H278.667V227.353H161.333V145.824ZM220 249.588C215.967 249.588 212.667 246.253 212.667 242.176C212.667 238.1 215.967 234.765 220 234.765C224.033 234.765 227.333 238.1 227.333 242.176C227.333 246.253 224.033 249.588 220 249.588Z" fill="#F64C27"/>
<path d="M77.4 186.16C74.68 172.36 62.56 162 48 162C36.44 162 26.44 168.56 21.44 178.16C9.4 179.44 0 189.6 0 202C0 215.24 10.76 226 24 226H76C87.04 226 96 217.04 96 206C96 195.44 87.8 186.88 77.4 186.16ZM76 218H24C15.16 218 8 210.84 8 202C8 193.16 15.16 186 24 186C32.84 186 40 193.16 40 202H48C48 190.96 40.56 181.68 30.4 178.88C34.44 173.52 40.8 170 48 170C60.12 170 70 179.88 70 192V194H76C82.6 194 88 199.4 88 206C88 212.6 82.6 218 76 218Z" fill="white"/>
</svg>
